<svg width="48" height="48" viewBox="0 0 48 48" fill="none" xmlns="http://www.w3.org/2000/svg">
<g clip-path="url(#clip0_2_1708)">
<path d="M8.444 27L24 42L39.556 27C42.256 24.967 44 21.744 44 18.111C44 11.978 39.022 7 32.889 7C29.256 7 26.022 8.756 24 11.456C21.978 8.756 18.744 7 15.111 7C8.978 7 4 11.978 4 18.111C4 21.744 5.744 24.967 8.444 27ZM15.111 11C17.367 11 19.44 12.04 20.798 13.853L24 18.128L27.202 13.853C28.56 12.04 30.633 11 32.889 11C36.81 11 40 14.19 40 18.111C40 20.365 38.961 22.44 37.149 23.805L36.954 23.952L36.778 24.121L24 36.443L11.221 24.121L11.045 23.952L10.85 23.805C9.039 22.44 8 20.365 8 18.111C8 14.19 11.19 11 15.111 11Z" fill="black"/>
</g>
<defs>
<clipPath id="clip0_2_1708">
<rect width="48" height="48" fill="white"/>
</clipPath>
</defs>
</svg>
